<svg xmlns="http://www.w3.org/2000/svg" viewBox="0 0 512 512"><!--!Font Awesome Free 6.5.1 by @fontawesome - https://fontawesome.com License - https://fontawesome.com/license/free Copyright 2023 Fonticons, Inc.--><path opacity="1" d="M464 64H48C21.5 64 0 85.5 0 112v288c0 26.5 21.5 48 48 48h416c26.5 0 48-21.5 48-48V112c0-26.5-21.5-48-48-48zm0 48v40.8c-22.4 18.3-58.2 46.7-134.6 106.5-16.8 13.2-50.2 45.1-73.4 44.7-23.2 .4-56.6-31.5-73.4-44.7C106.2 199.5 70.4 171.1 48 152.8V112h416zM48 400V214.4c22.9 18.3 55.4 43.9 104.9 82.6 21.9 17.2 60.1 55.2 103.1 55 42.7 .2 80.5-37.2 103.1-54.9 49.5-38.8 82-64.4 104.9-82.7V400H48z"/></svg>